<svg width="55" height="16" viewBox="0 0 55 16" fill="none" xmlns="http://www.w3.org/2000/svg">
<path d="M14.2268 2.0838H13.0389C12.8835 2.0838 12.7453 1.98089 12.7021 1.83134L12.6273 1.57888C12.3522 0.649321 11.4844 0 10.5154 0H6.28192C5.31291 0 4.44303 0.648978 4.16999 1.57888L4.09522 1.83134C4.05234 1.98089 3.91205 2.0838 3.75838 2.0838H2.61341C1.1731 2.0838 0 3.25655 0 4.6972V11.0124C0 12.4527 1.17276 13.6237 2.61341 13.6237H4.88071C4.56274 13.1579 4.2578 12.6547 3.98477 12.1272H2.61375C1.99839 12.1272 1.4969 11.6278 1.4969 11.0124V4.6972C1.4969 4.08184 1.99839 3.58036 2.61375 3.58036H3.75872C4.57235 3.58036 5.30022 3.036 5.53003 2.25599L5.60481 2.00147C5.69262 1.70408 5.97149 1.49656 6.28192 1.49656H10.515C10.8254 1.49656 11.1023 1.70408 11.1904 2.00147L11.2652 2.25599C11.4953 3.036 12.2249 3.58036 13.0386 3.58036H14.2264C14.8418 3.58036 15.3412 4.08184 15.3412 4.6972V11.0124C15.3412 11.6278 14.8418 12.1272 14.2264 12.1272H12.8328C12.5635 12.6564 12.2586 13.1579 11.9423 13.6237H14.2264C15.6667 13.6237 16.8378 12.4527 16.8378 11.0124V4.6972C16.8381 3.2569 15.6671 2.0838 14.2268 2.0838Z" fill="#64696B"/>
<path d="M11.1963 11.0536L11.2148 11.0413V11.0536H11.1963Z" fill="#FF801A"/>
<path d="M8.43607 3.64615C5.99795 3.62625 3.95154 5.54541 3.85481 7.98182C3.79752 9.42487 4.32988 10.8641 5.0478 12.1271C5.35308 12.6619 5.68923 13.1654 6.02984 13.624C6.74708 14.5906 7.47735 15.359 7.93356 15.8076C8.19253 16.0625 8.60689 16.0642 8.86792 15.8117C9.3303 15.3651 10.0698 14.5975 10.7922 13.6244C11.1345 13.1661 11.4717 12.6643 11.7725 12.1275C12.4442 10.9379 12.947 9.58334 12.947 8.19551C12.9474 5.6953 10.9305 3.66639 8.43607 3.64615ZM8.39834 11.0535C6.84347 11.0535 5.58119 9.79292 5.58119 8.23633C5.58119 6.68146 6.84347 5.41918 8.39834 5.41918C9.95424 5.41918 11.2155 6.68146 11.2155 8.23633C11.2155 9.79292 9.95424 11.0535 8.39834 11.0535Z" fill="url(#paint0_linear_16998_21885)"/>
<path d="M21.3784 13.6845C21.2807 13.632 21.1675 13.606 21.0392 13.606H20.6012H20.3902H20.2129V15.6661H20.6012V14.8669H21.0392C21.1675 14.8669 21.2807 14.8408 21.3784 14.789C21.4762 14.7372 21.552 14.6635 21.6059 14.5688C21.6597 14.4738 21.6868 14.3637 21.6868 14.2378C21.6868 14.1122 21.6597 14.0018 21.6059 13.9061C21.5524 13.8107 21.4762 13.737 21.3784 13.6845ZM21.2546 14.3709C21.2347 14.4096 21.2073 14.4395 21.1716 14.4611C21.1363 14.4824 21.0955 14.493 21.0488 14.493H20.6012V13.9802H21.0488C21.0961 13.9802 21.1373 13.9908 21.173 14.0121C21.2083 14.0334 21.2358 14.0635 21.2553 14.103C21.2745 14.1421 21.2845 14.1874 21.2845 14.2381C21.2845 14.2879 21.2745 14.3325 21.2546 14.3709Z" fill="#64696B"/>
<path d="M22.3945 13.606H21.9922V15.6661H22.3945V13.606Z" fill="#64696B"/>
<path d="M23.2492 14.1477C23.2759 14.0904 23.315 14.0472 23.3661 14.0174C23.4173 13.9875 23.479 13.9728 23.5514 13.9728C23.6073 13.9728 23.6577 13.9855 23.7023 14.0112C23.7472 14.0366 23.7853 14.0736 23.8172 14.1216C23.8488 14.1697 23.8721 14.228 23.8872 14.2959H24.2895C24.2642 14.1456 24.2182 14.0174 24.1516 13.911C24.0851 13.8047 24.0007 13.7237 23.8988 13.6682C23.797 13.6123 23.681 13.5845 23.5514 13.5845C23.395 13.5845 23.2605 13.6147 23.149 13.675C23.0375 13.7354 22.9525 13.8232 22.8938 13.9378C22.8352 14.0527 22.8057 14.1913 22.8057 14.3535V14.9188C22.8057 15.0814 22.8352 15.22 22.8938 15.3345C22.9521 15.4494 23.0375 15.5366 23.149 15.5966C23.2605 15.6566 23.3946 15.6864 23.5514 15.6864C23.681 15.6864 23.7963 15.6587 23.8978 15.6031C23.9993 15.5472 24.0834 15.4662 24.1503 15.3599C24.2168 15.2536 24.2631 15.1253 24.2895 14.975H23.8872C23.8728 15.044 23.8501 15.1026 23.8189 15.1507C23.7877 15.1987 23.7496 15.2354 23.704 15.2604C23.6587 15.2855 23.608 15.2982 23.551 15.2982C23.4783 15.2982 23.4166 15.2834 23.3658 15.2536C23.3147 15.2237 23.2756 15.1805 23.2488 15.1239C23.2217 15.0673 23.2087 14.9987 23.2087 14.9184V14.3532C23.209 14.2736 23.2221 14.205 23.2492 14.1477Z" fill="#64696B"/>
<path d="M24.3896 13.9798H24.9508V15.6661H25.3391V13.9798H25.8999V13.606H24.3896V13.9798Z" fill="#64696B"/>
<path d="M27.1874 14.9307C27.1874 15.0487 27.1555 15.1402 27.0921 15.2054C27.0283 15.2706 26.9384 15.3032 26.8221 15.3032C26.7069 15.3032 26.6174 15.2706 26.5546 15.2054C26.4911 15.1402 26.4596 15.0487 26.4596 14.9307V13.606H26.0713V14.9207C26.0713 15.0823 26.1004 15.2205 26.1591 15.3351C26.2178 15.45 26.3032 15.5371 26.4157 15.5971C26.5282 15.6572 26.6637 15.687 26.8225 15.687C26.9813 15.687 27.1171 15.6572 27.23 15.5971C27.3428 15.5371 27.4286 15.4496 27.4876 15.3351C27.5466 15.2202 27.5761 15.0823 27.5761 14.9207V13.606H27.1878V14.9307H27.1874Z" fill="#64696B"/>
<path d="M29.2019 14.7605C29.2883 14.7094 29.3552 14.6374 29.4025 14.5444C29.4495 14.4515 29.4735 14.3434 29.4735 14.2206C29.4735 14.0978 29.4499 13.9898 29.4025 13.8968C29.3552 13.8039 29.2886 13.7318 29.2029 13.6807C29.1168 13.6296 29.0173 13.6042 28.9038 13.6042H28.3893H28.1553H28.001V15.6657H28.3893V14.837H28.6246L29.089 15.6657H29.5596L29.0667 14.8161C29.1151 14.8038 29.16 14.7852 29.2019 14.7605ZM28.3893 13.9785H28.8726C28.913 13.9785 28.9484 13.9884 28.9789 14.0083C29.0091 14.0282 29.0324 14.0563 29.0489 14.0934C29.0653 14.1304 29.0736 14.173 29.0736 14.221C29.0725 14.269 29.064 14.3115 29.0472 14.3486C29.0307 14.3856 29.0074 14.4138 28.9772 14.4337C28.947 14.4535 28.912 14.4635 28.8726 14.4635H28.3893V13.9785Z" fill="#64696B"/>
<path d="M29.9219 13.606V15.6661H31.3022V15.2919H30.3102V14.8302H31.1461V14.4559H30.3102V13.9798H31.3022V13.606H29.9219Z" fill="#64696B"/>
<path d="M32.811 14.5529C32.7235 14.5166 32.6148 14.4857 32.4844 14.46C32.4789 14.459 32.4735 14.4579 32.468 14.4566C32.4628 14.4552 32.4573 14.4538 32.4515 14.4531C32.4477 14.4521 32.444 14.4514 32.4402 14.4511C32.4364 14.4507 32.4326 14.45 32.4289 14.449C32.3383 14.4312 32.268 14.414 32.2179 14.3979C32.1678 14.3818 32.126 14.3564 32.0917 14.3221C32.0577 14.2878 32.0406 14.2405 32.0406 14.1811V14.1797C32.0406 14.1091 32.0732 14.0539 32.1383 14.0148C32.2035 13.9757 32.2958 13.9561 32.4148 13.9561C32.494 13.9561 32.577 13.9712 32.6631 14.0014C32.7496 14.0316 32.8326 14.0741 32.9118 14.129L33.0761 13.8004C33.0099 13.7551 32.9403 13.7163 32.8666 13.6841C32.7928 13.6518 32.7177 13.6275 32.6405 13.6103C32.5637 13.5932 32.4882 13.585 32.4148 13.585C32.2539 13.585 32.1171 13.6097 32.0039 13.6594C31.8903 13.7091 31.8042 13.7812 31.7446 13.8755C31.6852 13.9698 31.655 14.0837 31.655 14.2171V14.2185C31.655 14.3687 31.6869 14.4847 31.75 14.5663C31.8132 14.648 31.8903 14.7052 31.9809 14.7378C32.0715 14.7704 32.186 14.7975 32.3239 14.8195L32.3551 14.8236C32.3579 14.8246 32.3606 14.8249 32.363 14.8249C32.3654 14.8249 32.3682 14.8253 32.3709 14.8263C32.4491 14.8387 32.5133 14.8524 32.5637 14.8675C32.6134 14.8826 32.6546 14.9062 32.6854 14.9381C32.7167 14.9704 32.7321 15.0139 32.7321 15.0685V15.0699C32.7321 15.1484 32.6971 15.2091 32.6271 15.252C32.5572 15.2949 32.4591 15.3165 32.3325 15.3165C32.2227 15.3165 32.116 15.2986 32.0121 15.2633C31.9082 15.228 31.8166 15.1776 31.7374 15.1124L31.5576 15.4324C31.6228 15.4863 31.6969 15.5322 31.7795 15.5707C31.8622 15.6091 31.9504 15.6379 32.0444 15.6578C32.1383 15.6777 32.2344 15.6876 32.3328 15.6876C32.4978 15.6876 32.6395 15.6629 32.7571 15.6139C32.8748 15.5648 32.964 15.4935 33.0257 15.4002C33.0871 15.3065 33.1176 15.194 33.1176 15.063V15.0603C33.1176 14.9203 33.0885 14.8102 33.0298 14.7296C32.9712 14.648 32.8981 14.5893 32.811 14.5529Z" fill="#64696B"/>
<path d="M35.8608 14.9804L35.467 13.606H35.1552L34.7611 14.9804L34.4963 13.606H34.0967L34.5714 15.6661H34.9371L35.3195 14.2265L35.6852 15.6661H36.0508L36.5252 13.606H36.1259L35.8608 14.9804Z" fill="#64696B"/>
<path d="M37.871 13.6788C37.7571 13.616 37.6258 13.5845 37.4762 13.5845C37.327 13.5845 37.1956 13.616 37.0814 13.6788C36.9679 13.7416 36.8794 13.8304 36.8173 13.945C36.7548 14.0599 36.7236 14.1926 36.7236 14.3439V14.9277C36.7236 15.0786 36.7548 15.2117 36.8173 15.3266C36.8797 15.4415 36.9679 15.53 37.0814 15.5928C37.1953 15.6556 37.3266 15.6871 37.4762 15.6871C37.6254 15.6871 37.7568 15.6559 37.871 15.5928C37.9845 15.53 38.073 15.4412 38.1351 15.3266C38.1976 15.2117 38.2288 15.079 38.2288 14.9277V14.3439C38.2288 14.1926 38.1976 14.0599 38.1351 13.945C38.0727 13.8301 37.9845 13.7416 37.871 13.6788ZM37.8261 14.9377C37.8261 15.0093 37.8117 15.0728 37.7829 15.1277C37.754 15.1826 37.7132 15.2248 37.6604 15.2546C37.6076 15.2844 37.5462 15.2992 37.4762 15.2992C37.4062 15.2992 37.3448 15.2844 37.292 15.2546C37.2392 15.2248 37.1984 15.1826 37.1695 15.1277C37.1407 15.0728 37.1263 15.0097 37.1263 14.9377V14.334C37.1263 14.2623 37.1407 14.1988 37.1695 14.1439C37.1984 14.0894 37.2392 14.0469 37.292 14.0174C37.3448 13.9875 37.4062 13.9728 37.4762 13.9728C37.5462 13.9728 37.6076 13.9875 37.6604 14.0174C37.7132 14.0472 37.754 14.0894 37.7829 14.1439C37.8117 14.1988 37.8261 14.2623 37.8261 14.334V14.9377Z" fill="#64696B"/>
<path d="M39.8421 14.7605C39.9286 14.7094 39.9951 14.6374 40.0425 14.5444C40.0898 14.4515 40.1135 14.3434 40.1135 14.2206C40.1135 14.0978 40.0898 13.9898 40.0425 13.8968C39.9951 13.8039 39.9286 13.7318 39.8428 13.6807C39.7571 13.6296 39.6573 13.6042 39.5441 13.6042H38.6416V15.6657H39.0299V14.837H39.2652L39.7293 15.6657H40.1999L39.7073 14.8161C39.755 14.8038 39.8003 14.7852 39.8421 14.7605ZM39.0295 13.9785H39.5125C39.5533 13.9785 39.5887 13.9884 39.6188 14.0083C39.649 14.0282 39.6724 14.0563 39.6892 14.0934C39.7056 14.1304 39.7139 14.173 39.7139 14.221C39.7132 14.269 39.7043 14.3115 39.6878 14.3486C39.6713 14.3856 39.648 14.4138 39.6178 14.4337C39.5873 14.4535 39.5526 14.4635 39.5129 14.4635H39.0299V13.9785H39.0295Z" fill="#64696B"/>
<path d="M40.2773 13.9798H40.8385V15.6661H41.2268V13.9798H41.7876V13.606H40.2773V13.9798Z" fill="#64696B"/>
<path d="M43.1718 14.4573H42.4322V13.606H42.0439V15.6661H42.4322V14.8315H43.1718V15.6661H43.5601V13.606H43.1718V14.4573Z" fill="#64696B"/>
<path d="M46.078 13.9798V13.606H44.5674V13.9798H45.1285V15.6661H45.5168V13.9798H46.078Z" fill="#64696B"/>
<path d="M46.7957 13.606L46.0078 15.6661H46.4259L46.5415 15.3361H47.2965L47.4121 15.6661H47.8299L47.0423 13.606H46.7957ZM46.6726 14.9619L46.9189 14.2591L47.1651 14.9619H46.6726Z" fill="#64696B"/>
<path d="M49.662 13.606H49.1732L48.5016 14.6264V13.606H48.1133V15.6661H48.5016V15.2198L48.7966 14.8092L49.2878 15.6661H49.7484L49.05 14.4566L49.662 13.606Z" fill="#64696B"/>
<path d="M50.4072 13.606H50.0049V15.6661H50.4072V13.606Z" fill="#64696B"/>
<path d="M52.0687 15.1142L51.3361 13.606H50.8613V15.6647H51.2325V14.1798L51.9624 15.6647H52.4399V13.606H52.0687V15.1142Z" fill="#64696B"/>
<path d="M53.6729 14.514V14.8883H53.9847V14.9222C53.9847 14.997 53.9707 15.0615 53.9422 15.1164C53.9137 15.1712 53.8736 15.2131 53.8211 15.2419C53.7686 15.2707 53.7076 15.2851 53.6376 15.2851C53.5669 15.2851 53.5045 15.2717 53.4507 15.2453C53.3968 15.2189 53.3553 15.1812 53.3261 15.1321C53.297 15.0831 53.2822 15.0265 53.2822 14.962V14.3542C53.2822 14.2815 53.2966 14.2173 53.3255 14.1614C53.3543 14.1059 53.3951 14.0626 53.4472 14.0324C53.4997 14.0023 53.5604 13.9872 53.6294 13.9872C53.6764 13.9872 53.722 13.9954 53.7659 14.0119C53.8098 14.0283 53.8482 14.0527 53.8808 14.0842C53.913 14.1158 53.9367 14.1535 53.9508 14.1967H54.3703C54.3456 14.075 54.2986 13.9676 54.2293 13.875C54.1597 13.7824 54.0732 13.711 53.9693 13.6603C53.8654 13.6099 53.7522 13.5845 53.6294 13.5845C53.4802 13.5845 53.3488 13.6164 53.2352 13.6802C53.122 13.744 53.0342 13.8338 52.9725 13.9501C52.9108 14.0664 52.8799 14.2009 52.8799 14.3538V14.9617C52.8799 15.1061 52.9111 15.2333 52.9742 15.3428C53.037 15.4525 53.1258 15.5372 53.2404 15.5973C53.3553 15.6573 53.4877 15.6871 53.6376 15.6871C53.7868 15.6871 53.9182 15.6552 54.0314 15.5914C54.1446 15.5276 54.2324 15.4374 54.2941 15.3208C54.3562 15.2042 54.3871 15.0694 54.3871 14.9164V14.514H53.6729Z" fill="#64696B"/>
<path d="M24.5958 5.40711C24.474 5.34468 24.3543 5.28328 24.238 5.22257C24.132 5.167 24.026 5.11212 23.9211 5.05758C22.5631 4.35338 21.7947 3.91226 21.7947 3.03278C21.7947 2.62803 21.7947 1.55303 23.9101 1.55303C24.5783 1.55303 25.4385 1.68269 25.7397 2.30011C25.9483 2.7275 25.821 3.25437 25.6941 3.41661C25.4365 3.74693 25.4951 4.22338 25.8255 4.48132C26.1558 4.73927 26.6326 4.68027 26.8902 4.34995C27.3488 3.76202 27.5793 2.61053 27.1032 1.63467C26.8116 1.03748 26.0093 0.0358887 23.9101 0.0358887C22.8166 0.0358887 21.9463 0.276683 21.3245 0.751068C20.6398 1.27382 20.2776 2.06274 20.2776 3.03278C20.2776 4.87716 21.8421 5.68838 23.2227 6.40424C23.3256 6.45775 23.4292 6.51126 23.5331 6.5658C23.6535 6.62892 23.7777 6.69272 23.9043 6.75755C25.2622 7.45317 26.2234 8.02326 26.2234 9.03137C26.2234 9.83642 25.9836 10.907 23.9101 10.907C22.9675 10.907 22.0705 10.5022 21.7289 9.92286C21.614 9.72837 21.5629 9.51399 21.5738 9.28211C22.1127 9.22483 22.5326 8.76897 22.5326 8.21466C22.5326 7.62159 22.0516 7.14103 21.4589 7.14103C21.0243 7.14103 20.6508 7.39966 20.482 7.77115C19.9356 8.79469 19.913 9.83059 20.4223 10.6939C21.0425 11.7449 22.4115 12.4241 23.9101 12.4241C25.0997 12.4241 26.0385 12.1336 26.7005 11.5607C27.3807 10.9721 27.7402 10.0975 27.7402 9.03137C27.7402 7.01755 25.9229 6.08661 24.5958 5.40711Z" fill="#64696B"/>
<path d="M29.9757 4.70325C30.395 4.28398 30.395 3.6042 29.9757 3.18493C29.5565 2.76566 28.8767 2.76566 28.4574 3.18493C28.0381 3.6042 28.0381 4.28398 28.4574 4.70325C28.8767 5.12253 29.5565 5.12253 29.9757 4.70325Z" fill="#64696B"/>
<path d="M51.6686 5.47125C50.1744 5.47125 48.9588 6.68688 48.9588 8.18104V10.2137C48.9588 10.5958 48.648 10.907 48.2656 10.907C47.8834 10.907 47.5723 10.5962 47.5723 10.2137V8.30076C47.5723 6.92562 46.4534 5.80672 45.0783 5.80672C44.4043 5.80672 43.792 6.07598 43.3427 6.51195C42.8933 6.07598 42.2814 5.80672 41.6074 5.80672C41.2493 5.80672 40.9086 5.88321 40.6003 6.01973C40.509 5.70313 40.2178 5.47091 39.8717 5.47091C39.4529 5.47091 39.1133 5.81049 39.1133 6.22931V10.2041C39.1133 10.5914 38.7984 10.9063 38.4112 10.9063C38.0239 10.9063 37.709 10.5914 37.709 10.2041V8.15841C37.709 6.67659 36.5033 5.47091 35.0215 5.47091C34.602 5.47091 34.2048 5.56764 33.8508 5.73949V0.794288C33.8508 0.37547 33.5113 0.0358887 33.0924 0.0358887C32.6736 0.0358887 32.334 0.37547 32.334 0.794288V9.72734C32.334 10.3777 31.8048 10.907 31.1544 10.907C30.5041 10.907 29.9748 10.3777 29.9748 9.72734V6.22965C29.9748 5.81083 29.6352 5.47125 29.2164 5.47125C28.7976 5.47125 28.458 5.81083 28.458 6.22965V9.727C28.458 11.214 29.6678 12.4234 31.1544 12.4234C31.6281 12.4234 32.0737 12.3003 32.461 12.0849C32.5968 12.289 32.829 12.4234 33.0924 12.4234C33.5113 12.4234 33.8508 12.0838 33.8508 11.665V8.15875C33.8508 7.5132 34.376 6.98805 35.0215 6.98805C35.6671 6.98805 36.1922 7.5132 36.1922 8.15875V10.2045C36.1922 11.428 37.1877 12.4234 38.4112 12.4234C38.7466 12.4234 39.0646 12.3483 39.35 12.2145C39.4862 12.3438 39.6693 12.4234 39.8717 12.4234C40.2905 12.4234 40.6301 12.0838 40.6301 11.665V8.30041C40.6301 7.76188 41.0685 7.32351 41.607 7.32351C42.1455 7.32351 42.5839 7.76188 42.5839 8.30041V11.665C42.5839 12.0838 42.9235 12.4234 43.3423 12.4234C43.7611 12.4234 44.1007 12.0838 44.1007 11.665V8.30041C44.1007 7.76188 44.5391 7.32351 45.0776 7.32351C45.6161 7.32351 46.0545 7.76188 46.0545 8.30041V10.2134C46.0545 11.4321 47.0458 12.4234 48.2645 12.4234C48.894 12.4234 49.4623 12.1586 49.8654 11.735C50.3446 12.1627 50.976 12.4234 51.6675 12.4234C53.1617 12.4234 54.3773 11.2078 54.3773 9.71362V8.1807C54.3784 6.68689 53.1627 5.47125 51.6686 5.47125ZM52.8612 9.71396C52.8612 10.3715 52.3261 10.9066 51.6686 10.9066C51.011 10.9066 50.4759 10.3715 50.4759 9.71396V9.11507V8.1807C50.4759 7.52315 51.011 6.98805 51.6686 6.98805C52.3261 6.98805 52.8612 7.52315 52.8612 8.1807V9.71396Z" fill="#64696B"/>
<defs>
<linearGradient id="paint0_linear_16998_21885" x1="5.98677" y1="5.00147" x2="11.4833" y2="13.2176" gradientUnits="userSpaceOnUse">
<stop stop-color="#FFC930"/>
<stop offset="1" stop-color="#FF6713"/>
</linearGradient>
</defs>
</svg>
