<svg width="45" height="45" viewBox="0 0 45 45" fill="none" xmlns="http://www.w3.org/2000/svg">
<path d="M22.5 45C34.9264 45 45 34.9264 45 22.5C45 10.0736 34.9264 0 22.5 0C10.0736 0 0 10.0736 0 22.5C0 34.9264 10.0736 45 22.5 45Z" fill="#FF9900"/>
<path d="M17.5922 21.0557C17.5922 21.3325 17.6229 21.5566 17.6757 21.7192C17.7372 21.8862 17.8119 22.0664 17.9174 22.2598C17.9569 22.3169 17.9701 22.3784 17.9701 22.4312C17.9701 22.5059 17.9262 22.5806 17.8295 22.6553L17.3593 22.9673C17.3021 23.0068 17.2362 23.0332 17.1659 23.0332C17.0912 23.0332 17.0165 22.9937 16.9418 22.9277C16.8407 22.8179 16.7528 22.7036 16.6737 22.5762C16.5902 22.4312 16.5111 22.2861 16.4408 22.1367C15.8563 22.8267 15.1224 23.1694 14.2391 23.1694C13.6107 23.1694 13.1098 22.9893 12.745 22.6333C12.3803 22.2729 12.1913 21.7939 12.1913 21.1963C12.1913 20.5591 12.4154 20.0449 12.8724 19.6538C13.3295 19.2627 13.9359 19.0693 14.705 19.0693C14.9598 19.0693 15.2235 19.0913 15.496 19.1309C15.7728 19.1704 16.0585 19.2275 16.3573 19.2979V18.7529C16.3573 18.186 16.2387 17.7861 16.0057 17.5576C15.7684 17.3247 15.3641 17.2148 14.7885 17.2148C14.5248 17.2148 14.2567 17.2456 13.9799 17.3115C13.703 17.3774 13.4349 17.4609 13.1713 17.5664C13.0878 17.606 12.9999 17.6367 12.9076 17.6631C12.8681 17.6763 12.8285 17.6807 12.789 17.6851C12.6835 17.6851 12.6307 17.6104 12.6307 17.4521V17.0874C12.6307 16.9687 12.6439 16.8765 12.6835 16.8237C12.7406 16.7578 12.8109 16.7007 12.8944 16.6655C13.1581 16.5293 13.4701 16.4194 13.8348 16.3271C14.2172 16.2305 14.6083 16.1821 15.0038 16.1865C15.8959 16.1865 16.5463 16.3887 16.9638 16.793C17.3768 17.1973 17.5834 17.8081 17.5834 18.6343V21.0601L17.5922 21.0557ZM14.5556 22.1938C14.8016 22.1938 15.0565 22.1499 15.3246 22.0576C15.5927 21.9697 15.8344 21.8027 16.0365 21.5786C16.1552 21.438 16.2474 21.2798 16.2914 21.0996C16.3353 20.9194 16.3661 20.7041 16.3661 20.4492V20.1372C16.1376 20.0801 15.9091 20.0405 15.6762 20.0098C15.4432 19.979 15.2059 19.9658 14.973 19.9658C14.4721 19.9658 14.1029 20.0625 13.8568 20.2646C13.6107 20.4668 13.4921 20.7524 13.4921 21.126C13.4921 21.4775 13.58 21.7412 13.7689 21.917C13.9491 22.106 14.2084 22.1938 14.5556 22.1938ZM20.5629 23.0024C20.4266 23.0024 20.3388 22.9805 20.2772 22.9277C20.2157 22.8838 20.163 22.7783 20.119 22.6377L18.3612 16.8545C18.3261 16.7578 18.3041 16.6567 18.2953 16.5557C18.2953 16.437 18.3568 16.3667 18.4755 16.3667H19.2094C19.35 16.3667 19.4467 16.3887 19.4994 16.4414C19.5609 16.4854 19.6049 16.5908 19.6488 16.7358L20.9057 21.6885L22.0746 16.7358C22.1141 16.5864 22.1581 16.4897 22.2152 16.4414C22.3031 16.3843 22.4086 16.3579 22.514 16.3667H23.1161C23.2567 16.3667 23.3578 16.3887 23.4149 16.4414C23.4721 16.4854 23.5292 16.5908 23.5556 16.7358L24.7377 21.75L26.0341 16.7358C26.078 16.5864 26.1307 16.4897 26.1835 16.4414C26.2714 16.3843 26.3724 16.3579 26.4735 16.3667H27.1723C27.2909 16.3667 27.3612 16.4282 27.3612 16.5557C27.3612 16.5952 27.3524 16.6304 27.3436 16.6743C27.3305 16.7402 27.3129 16.8018 27.2909 16.8633L25.4891 22.6465C25.4452 22.7959 25.3925 22.8926 25.3309 22.9365C25.2474 22.9893 25.1464 23.0156 25.0453 23.0112H24.3993C24.2587 23.0112 24.162 22.9893 24.1005 22.9365C24.0433 22.8838 23.9906 22.7871 23.9598 22.6377L22.7997 17.8125L21.6483 22.6333C21.6088 22.7827 21.5648 22.8794 21.5077 22.9321C21.4462 22.9849 21.3407 23.0068 21.2089 23.0068L20.5629 23.0024ZM30.1781 23.2046C29.787 23.2046 29.4003 23.1606 29.0267 23.0684C28.6532 22.9805 28.3632 22.8794 28.1654 22.7695C28.0468 22.7036 27.9633 22.6289 27.9325 22.5586C27.9017 22.4927 27.8886 22.4224 27.8886 22.3477V21.9653C27.8886 21.8071 27.9501 21.7324 28.0599 21.7324C28.1039 21.7324 28.1478 21.7412 28.1962 21.7544C28.2401 21.7676 28.3104 21.7983 28.3851 21.8291C28.64 21.9434 28.9169 22.0312 29.2069 22.0928C29.5057 22.1543 29.7958 22.1807 30.099 22.1807C30.5692 22.1807 30.9384 22.0972 31.1932 21.9346C31.4393 21.7852 31.5888 21.5127 31.5844 21.2227C31.5888 21.0293 31.5184 20.8403 31.3822 20.6997C31.246 20.5591 30.9911 20.4316 30.6264 20.3086L29.5409 19.9702C28.996 19.7988 28.5917 19.5439 28.3456 19.21C28.1039 18.8979 27.9721 18.5156 27.9721 18.1245C27.9721 17.8125 28.0424 17.5356 28.1742 17.2939C28.3104 17.0566 28.4862 16.8457 28.7147 16.6787C28.9389 16.5073 29.1937 16.3799 29.4926 16.2876C29.7914 16.1997 30.1078 16.1602 30.4374 16.1602C30.6 16.1602 30.7758 16.1689 30.9384 16.1909C31.1098 16.2129 31.268 16.2437 31.4262 16.2744C31.5756 16.314 31.7206 16.3491 31.8524 16.3931C31.9887 16.437 32.0941 16.481 32.1688 16.5293C32.2567 16.5732 32.3358 16.6392 32.393 16.7183C32.4413 16.793 32.4633 16.8765 32.4589 16.9644V17.3159C32.4589 17.4741 32.3973 17.5576 32.2875 17.5576C32.1864 17.5444 32.0897 17.5137 32.0018 17.4697C31.5492 17.272 31.0614 17.1709 30.5648 17.1797C30.1386 17.1797 29.8002 17.2456 29.5673 17.3906C29.3344 17.5312 29.2157 17.751 29.2157 18.0542C29.2157 18.2651 29.2904 18.4453 29.4398 18.5859C29.5892 18.7266 29.8661 18.8716 30.2616 18.999L31.3251 19.333C31.8612 19.5044 32.2523 19.7461 32.4852 20.0537C32.7181 20.3613 32.828 20.7129 32.828 21.0996C32.828 21.4204 32.7621 21.7148 32.6347 21.9697C32.4984 22.2246 32.3182 22.4487 32.0897 22.6289C31.8568 22.8179 31.58 22.9497 31.2592 23.0464C30.912 23.1519 30.5604 23.2046 30.1781 23.2046ZM31.5932 26.8389C29.1322 28.6582 25.5551 29.6206 22.4789 29.6206C18.1679 29.6206 14.2831 28.0254 11.3519 25.3755C11.119 25.1646 11.33 24.8833 11.6068 25.0459C14.7797 26.8872 18.6952 28.0034 22.7426 28.0034C25.476 28.0034 28.473 27.4365 31.2372 26.2676C31.6459 26.083 31.9974 26.54 31.5932 26.8389ZM32.6171 25.6743C32.3007 25.27 30.5341 25.481 29.7343 25.5776C29.497 25.6084 29.4574 25.3975 29.6771 25.2393C31.0834 24.2505 33.3949 24.5361 33.6674 24.8657C33.9354 25.2041 33.5927 27.5156 32.2743 28.623C32.0722 28.7944 31.8788 28.7065 31.9667 28.4824C32.2655 27.7397 32.9335 26.0698 32.6171 25.6743Z" fill="white"/>
</svg>
