<svg width="45" height="45" viewBox="0 0 45 45" fill="none" xmlns="http://www.w3.org/2000/svg">
<rect width="45" height="45" rx="22.5" fill="black"/>
<path d="M14.1482 14C9.10385 14 5 18.0375 5 23C5 27.9625 9.104 32 14.1482 32H31.8518C36.8961 32 41 27.9625 41 23C41 18.0375 36.896 14 31.8518 14H14.1482ZM13.9661 16.8609C14.7056 16.8793 15.4961 17.2302 15.8756 17.7824C16.4265 18.4619 16.5923 19.3609 17.2172 19.9919C18.0578 20.8971 19.0157 21.6942 19.7913 22.6582C20.5252 23.5392 21.0492 24.5724 21.5068 25.6138C21.6933 25.9593 21.6953 26.3835 21.9718 26.6787C22.108 26.8569 22.7736 27.342 22.6292 27.514C22.7125 27.6921 23.3345 27.9372 23.1186 28.1098C22.827 28.169 22.4993 28.1803 22.2762 27.9509C22.1939 28.1374 22.0018 28.0391 21.8534 28.0148C21.8405 28.051 21.828 28.0873 21.8159 28.1237C21.3227 28.1562 20.9528 27.6612 20.7179 27.2877C20.2512 27.0392 19.7216 26.8879 19.2449 26.6278C19.2176 27.0562 19.3127 27.5874 18.8984 27.8638C18.8774 28.6872 20.1638 27.9608 20.2817 28.5746C20.1902 28.5845 20.0888 28.5605 20.0156 28.6298C19.6797 28.9512 19.2949 28.3864 18.9079 28.6194C18.3883 28.8769 18.3367 29.0872 17.6935 29.1403C17.6579 29.0872 17.672 29.0527 17.7023 29.0203C17.8833 28.8133 17.8965 28.5696 18.2057 28.4812C17.8874 28.4318 17.6208 28.6045 17.3528 28.7412C17.0043 28.8818 17.0072 28.4244 16.4711 28.7655C16.4117 28.7178 16.4399 28.6745 16.4738 28.6376C16.61 28.4738 16.7891 28.4497 16.9913 28.4589C15.9968 27.9135 15.5287 29.1258 15.0694 28.5228C14.9314 28.5588 14.8796 28.6808 14.7926 28.7672C14.7176 28.6862 14.7741 28.5879 14.7778 28.4925C14.688 28.451 14.5744 28.4318 14.6009 28.2904C14.4253 28.2319 14.3027 28.334 14.1719 28.4312C14.0539 28.3413 14.2517 28.2105 14.2883 28.1168C14.3936 27.9369 14.6333 28.0798 14.755 27.9502C15.1009 27.7566 15.5829 28.0706 15.9782 28.0175C16.2827 28.0552 16.6598 27.7475 16.5071 27.4404C16.1814 27.031 16.2386 26.4955 16.2313 26.0059C16.1911 25.7205 15.4948 25.3575 15.2934 25.0498C15.0446 24.7726 14.851 24.4509 14.657 24.135C13.9571 22.8022 14.1773 21.0893 13.2955 19.8519C12.8965 20.0688 12.3767 19.9664 12.0328 19.6758C11.847 19.8423 11.839 20.0602 11.8243 20.2915C11.3787 19.8532 11.4353 19.0251 11.7913 18.5374C11.9366 18.3447 12.1103 18.1862 12.3043 18.0467C12.3481 18.0152 12.3629 17.9847 12.362 17.9362C12.5381 17.1568 13.2266 16.8426 13.9661 16.8609ZM32.5768 17.5416C33.413 17.5416 34.1976 17.861 34.7878 18.4415C35.3778 19.0219 35.7028 19.7946 35.7028 20.6172C35.7028 21.4399 35.3777 22.2122 34.7878 22.792L33.4347 24.1238C33.0745 24.4785 32.6318 24.741 32.1452 24.8882L32.1206 24.8951L32.1119 24.9194C31.9562 25.3259 31.7137 25.6947 31.4009 26.0007L30.0482 27.3317C29.4581 27.9123 28.6727 28.2318 27.8365 28.2318C27.0002 28.2318 26.2156 27.9122 25.6255 27.3317C24.406 26.1321 24.406 24.1809 25.6255 22.9812L26.9783 21.6503C27.3372 21.2959 27.7793 21.0345 28.2653 20.8893L28.2908 20.8814L28.2995 20.8581C28.456 20.4503 28.6991 20.0801 29.0123 19.7724L30.365 18.4415C30.9551 17.8609 31.7407 17.5416 32.5768 17.5416ZM32.5768 18.8681C32.3431 18.8673 32.1117 18.9122 31.8957 19.0001C31.6798 19.088 31.4836 19.2173 31.3186 19.3803L29.9659 20.7113C29.7852 20.8894 29.6457 21.104 29.557 21.3403C29.4682 21.5766 29.4324 21.829 29.4518 22.0802L29.4597 22.1649C29.5082 22.5573 29.6833 22.9112 29.9659 23.1884C30.1609 23.3801 30.3758 23.5012 30.6365 23.5858C30.6505 23.6631 30.6575 23.7414 30.6575 23.8199C30.6582 23.9932 30.6239 24.1649 30.5567 24.325C30.4895 24.4851 30.3908 24.6305 30.2662 24.7527L30.1831 24.8346C29.7311 24.6825 29.3543 24.4603 29.014 24.1256C28.5639 23.6849 28.2622 23.1183 28.1498 22.5027L28.1349 22.4172L28.0658 22.4716C28.0199 22.5084 27.976 22.5476 27.9344 22.5891L26.5808 23.92C25.8874 24.6022 25.8874 25.7134 26.5808 26.3955C26.9275 26.7366 27.3833 26.9075 27.8399 26.9076C28.2964 26.9076 28.7514 26.7366 29.0981 26.3954L30.451 25.0644C31.1444 24.3823 31.1444 23.2721 30.451 22.589C30.266 22.407 30.0422 22.268 29.7959 22.1822C29.7824 22.1034 29.7754 22.0237 29.7749 21.9438C29.7749 21.5604 29.9284 21.1966 30.21 20.9195C30.6629 21.0716 31.0651 21.3181 31.4044 21.6519C31.8554 22.0956 32.1534 22.6566 32.2677 23.2748L32.2835 23.3603L32.3518 23.3051C32.3982 23.2683 32.4426 23.2291 32.4848 23.1876L33.8378 21.8565C34.5311 21.1744 34.532 20.0626 33.8378 19.3803C33.6726 19.2171 33.4763 19.0878 33.2601 18.9999C33.044 18.912 32.8123 18.8672 32.5786 18.8681H32.5768ZM17.6173 26.4982C17.4983 26.9536 17.4592 27.7299 16.8574 27.7524C16.8078 28.0151 17.0415 28.1141 17.2556 28.0296C17.4671 27.9342 17.5677 28.1048 17.6391 28.2748C17.9657 28.3217 18.4483 28.1675 18.4666 27.7868C17.9791 27.5106 17.8286 26.9852 17.6173 26.4982Z" fill="white"/>
</svg>
