<svg width="50" height="50" viewBox="0 0 50 50" fill="none" xmlns="http://www.w3.org/2000/svg">
<path d="M6.80199 23.3453C6.80199 23.3453 11.0515 17.0958 19.5362 16.4492V14.1819C10.1383 14.9342 2 22.8682 2 22.8682C2 22.8682 6.60938 36.1501 19.5362 37.3662V34.9562C10.0499 33.7666 6.80199 23.3453 6.80199 23.3453ZM19.5362 30.1633V32.3704C12.3667 31.0963 10.3766 23.6676 10.3766 23.6676C10.3766 23.6676 13.819 19.8664 19.5362 19.25V21.6718C19.5319 21.6718 19.5289 21.6705 19.5253 21.6705C16.5246 21.3116 14.1804 24.1057 14.1804 24.1057C14.1804 24.1057 15.4943 28.8096 19.5362 30.1633ZM19.5362 10V14.1819C19.8121 14.1608 20.088 14.143 20.3654 14.1335C31.0499 13.7746 38.0115 22.8682 38.0115 22.8682C38.0115 22.8682 30.0158 32.5594 21.6857 32.5594C20.9223 32.5594 20.2075 32.4888 19.5362 32.3702V34.9562C20.1103 35.0288 20.7055 35.0716 21.3265 35.0716C29.0783 35.0716 34.6841 31.1255 40.1123 26.4551C41.0122 27.1736 44.6967 28.9214 45.4541 29.6865C40.293 33.9936 28.2646 37.4656 21.4453 37.4656C20.788 37.4656 20.1567 37.4258 19.5362 37.3662V41H49V10H19.5362ZM19.5362 19.25V16.4492C19.8093 16.4302 20.0844 16.4157 20.3654 16.4069C28.0486 16.1663 33.0892 22.9881 33.0892 22.9881C33.0892 22.9881 27.6448 30.5251 21.8073 30.5251C20.9672 30.5251 20.2141 30.3905 19.5362 30.1633V21.6718C22.5273 22.0321 23.1291 23.3491 24.9274 26.3371L28.9268 22.9757C28.9268 22.9757 26.0073 19.1591 21.0858 19.1591C20.5508 19.1589 20.0389 19.1963 19.5362 19.25Z" fill="#77B900"/>
</svg>
